<?xml version="1.0" standalone="no"?>
<!DOCTYPE svg PUBLIC "-//W3C//DTD SVG 20010904//EN"
 "http://www.w3.org/TR/2001/REC-SVG-20010904/DTD/svg10.dtd">
<svg version="1.0" xmlns="http://www.w3.org/2000/svg"
 width="2560.000000pt" height="2560.000000pt" viewBox="0 0 2560.000000 2560.000000"
 preserveAspectRatio="xMidYMid meet">
<metadata>
Created by potrace 1.11, written by Peter Selinger 2001-2013
</metadata>
<g transform="translate(0.000000,2560.000000) scale(0.100000,-0.100000)"
fill="#000000" stroke="none">
<path d="M5679 17076 c-2 -2 -67 -6 -144 -10 -77 -4 -158 -9 -180 -11 -22 -2
-76 -7 -120 -9 -44 -3 -98 -8 -120 -11 -22 -2 -98 -12 -170 -20 -71 -8 -146
-17 -165 -20 -19 -2 -57 -7 -85 -10 -27 -4 -57 -8 -65 -10 -8 -2 -28 -6 -45
-9 -16 -3 -43 -7 -60 -10 -16 -3 -46 -8 -65 -11 -19 -3 -42 -8 -50 -10 -8 -2
-28 -7 -45 -9 -16 -3 -100 -22 -185 -41 -85 -20 -163 -38 -172 -40 -202 -44
-703 -216 -936 -322 -546 -246 -913 -471 -1247 -762 -98 -85 -279 -267 -349
-351 -39 -47 -73 -87 -76 -90 -8 -7 -62 -81 -86 -115 -11 -16 -36 -52 -55 -80
-203 -287 -378 -722 -448 -1110 -6 -33 -13 -71 -16 -84 -2 -13 -7 -49 -11 -80
-3 -31 -8 -64 -9 -73 -26 -136 -26 -833 0 -910 2 -7 6 -40 10 -73 7 -84 13
-127 31 -227 8 -48 17 -104 20 -125 4 -32 75 -364 88 -413 2 -8 16 -61 30
-117 14 -56 31 -114 37 -130 6 -15 30 -92 54 -169 102 -328 258 -699 408 -969
85 -154 93 -168 149 -260 331 -543 783 -1029 1228 -1320 41 -27 86 -56 100
-65 47 -31 225 -118 304 -150 119 -47 426 -136 538 -155 17 -3 34 -8 38 -10 4
-2 21 -7 38 -10 18 -3 65 -12 105 -21 39 -8 88 -17 107 -20 19 -3 41 -7 48 -9
15 -6 243 -41 317 -50 28 -3 64 -7 80 -10 202 -29 471 -42 820 -40 193 2 361
5 375 8 14 3 64 8 112 12 49 3 96 8 105 9 10 2 49 7 87 11 38 4 79 9 90 11 95
16 256 45 276 49 14 3 36 7 49 10 441 88 969 294 1346 526 267 164 801 565
1005 755 25 23 63 57 84 75 51 44 62 55 247 235 251 246 502 519 656 714 6 8
28 35 49 60 20 25 87 113 149 195 272 366 450 650 627 1000 68 135 107 222
233 520 21 50 61 140 90 200 28 61 84 180 124 265 l72 155 1699 0 1699 0 72
-155 c40 -85 95 -202 122 -260 27 -57 74 -163 104 -235 113 -267 147 -343 205
-460 121 -243 256 -474 405 -696 49 -71 93 -137 98 -146 6 -9 15 -24 22 -32 7
-9 62 -83 124 -166 106 -142 244 -313 350 -435 26 -30 57 -66 69 -80 170 -198
516 -542 770 -765 25 -22 47 -43 50 -46 12 -14 254 -211 307 -250 32 -24 60
-46 63 -49 18 -18 220 -164 350 -252 456 -309 859 -493 1364 -623 201 -51 362
-84 541 -111 22 -3 51 -8 65 -10 14 -2 59 -6 100 -10 41 -3 86 -8 100 -10 169
-26 991 -25 1135 2 11 2 49 6 85 9 36 3 81 7 100 10 19 3 55 7 80 10 25 3 70
10 100 15 30 5 75 12 100 15 87 12 357 67 515 105 379 92 614 186 860 347 585
383 1096 991 1481 1763 87 176 87 176 169 375 184 450 369 1201 410 1665 3 36
8 79 10 95 5 41 18 305 18 385 0 71 -12 337 -18 385 -2 17 -7 57 -11 90 -3 33
-8 69 -10 80 -2 11 -7 40 -10 64 -3 25 -7 47 -9 51 -2 3 -6 26 -10 50 -3 25
-10 59 -15 75 -5 17 -19 68 -31 115 -52 209 -182 537 -256 650 -13 19 -23 38
-23 42 0 21 -235 367 -270 398 -3 3 -28 33 -55 68 -28 34 -115 127 -195 205
-250 244 -508 437 -845 631 -55 31 -109 62 -120 68 -55 32 -341 170 -420 203
-49 21 -94 42 -100 47 -5 4 -15 8 -22 8 -7 0 -32 9 -56 20 -23 10 -80 33 -127
50 -47 17 -94 35 -105 40 -27 12 -247 82 -375 118 -199 57 -515 129 -680 156
-19 3 -46 8 -60 11 -13 2 -42 7 -65 10 -22 3 -51 8 -65 10 -14 3 -43 7 -65 10
-21 2 -93 11 -160 19 -106 14 -179 22 -280 31 -16 2 -79 7 -140 11 -60 4 -123
9 -140 12 -33 6 -14419 14 -14426 8z m10295 -536 c3 -3 -30 -18 -72 -34 -142
-52 -316 -127 -488 -211 -519 -254 -907 -582 -1089 -920 -21 -38 -41 -73 -44
-78 -4 -4 -27 16 -52 45 -86 101 -141 155 -273 266 -52 43 -202 140 -296 190
-173 92 -352 151 -585 191 -87 15 -149 18 -295 16 -102 -2 -203 -6 -225 -10
-22 -4 -47 -8 -55 -10 -186 -29 -452 -119 -580 -195 -8 -5 -44 -26 -80 -47
-36 -21 -69 -41 -75 -45 -142 -104 -197 -150 -281 -233 -55 -55 -113 -117
-128 -137 -16 -21 -32 -35 -37 -32 -5 3 -21 29 -35 57 -15 28 -34 62 -44 77
-9 14 -30 45 -46 70 -16 25 -31 47 -34 50 -3 3 -23 28 -45 55 -89 113 -279
288 -420 389 -39 28 -237 153 -325 206 -25 15 -270 136 -355 175 -96 45 -270
115 -342 139 -29 10 -55 21 -57 24 -5 8 6350 10 6358 2z m-9239 -274 c99 -4
214 -9 255 -11 149 -9 266 -16 305 -20 22 -3 74 -7 115 -10 41 -3 93 -7 115
-10 22 -2 74 -7 115 -10 41 -3 89 -8 105 -10 17 -2 55 -7 85 -10 114 -10 174
-17 194 -21 12 -2 48 -7 81 -10 33 -4 63 -8 66 -10 3 -2 34 -6 70 -9 35 -4 89
-11 119 -16 30 -5 71 -11 90 -13 34 -5 146 -22 185 -30 28 -5 83 -14 125 -21
189 -30 275 -57 547 -166 880 -355 1326 -828 1346 -1429 l2 -55 -4468 0
c-2458 0 -4473 3 -4479 6 -24 15 125 285 244 441 57 76 249 276 323 338 340
283 808 531 1345 713 177 60 559 166 660 183 14 3 86 16 160 30 74 14 149 28
165 30 17 2 53 8 80 14 56 11 411 56 524 65 41 4 82 8 91 10 9 2 70 6 136 10
65 4 137 9 159 11 22 2 146 7 275 10 129 4 236 7 237 8 5 4 476 -2 628 -8z
m13280 0 c39 -3 108 -8 155 -11 127 -8 228 -19 400 -40 63 -8 126 -17 140 -20
14 -2 41 -7 60 -9 76 -10 119 -18 215 -38 55 -11 111 -22 125 -25 14 -2 54
-11 90 -19 36 -9 72 -17 81 -19 77 -16 288 -78 444 -130 546 -181 1070 -462
1430 -768 69 -59 257 -245 305 -302 85 -102 250 -332 250 -349 0 -3 16 -31 34
-62 19 -32 33 -60 31 -63 -1 -3 -1987 -6 -4412 -6 l-4408 0 0 35 c-1 115 76
339 168 485 92 146 258 318 427 441 176 128 477 287 730 384 74 29 144 56 155
61 124 53 459 145 765 210 107 22 202 42 211 44 9 2 34 6 55 9 22 4 75 13 119
21 44 8 94 17 110 20 17 3 48 7 70 10 22 3 51 7 65 10 100 21 515 74 695 90
39 4 81 8 95 10 14 2 70 7 125 10 55 4 120 8 144 10 24 2 114 7 200 10 86 4
157 9 159 10 5 5 699 -3 767 -9z m-7085 -800 c99 -6 165 -20 280 -57 329 -107
612 -346 775 -656 29 -54 47 -78 61 -79 10 -1 35 -2 54 -3 l35 -1 4 -98 c2
-53 4 -113 5 -132 l1 -35 -1345 0 -1345 0 2 40 c6 153 11 216 15 220 2 2 26 5
54 6 l49 2 43 87 c157 315 480 572 842 671 83 23 119 28 225 36 50 3 91 7 93
8 1 1 19 1 40 -1 20 -2 71 -5 112 -8z m-8438 -2166 c-21 -19 -65 -57 -97 -85
-261 -221 -558 -541 -767 -825 -157 -214 -411 -631 -469 -769 -32 -77 -40
-122 -40 -211 2 -192 120 -378 294 -463 164 -80 339 -77 497 9 36 20 84 54
108 77 39 37 132 165 132 181 0 3 15 29 33 59 52 85 55 90 83 142 43 82 191
302 277 415 153 199 359 422 506 550 34 30 77 68 94 83 53 48 227 180 327 248
292 200 627 367 960 479 142 48 309 97 349 103 29 4 37 15 17 23 -9 3 -14 9
-12 13 3 5 3540 7 3568 2 7 -1 -26 -73 -152 -336 -34 -71 -94 -204 -132 -295
-73 -171 -206 -445 -239 -492 -11 -14 -19 -29 -19 -32 0 -12 -144 -243 -228
-366 -78 -113 -265 -366 -324 -436 -53 -64 -225 -262 -263 -304 -72 -80 -418
-424 -500 -497 -124 -111 -349 -296 -470 -387 -121 -91 -433 -306 -443 -306
-4 0 -24 -11 -44 -25 -20 -14 -57 -36 -83 -50 -25 -13 -67 -36 -93 -50 -256
-140 -687 -287 -1022 -349 -175 -33 -223 -40 -355 -51 -33 -3 -69 -8 -80 -10
-115 -24 -794 -24 -946 0 -13 2 -56 6 -94 9 -39 4 -81 8 -95 10 -14 3 -47 7
-75 10 -53 6 -74 10 -205 32 -14 3 -61 12 -105 20 -44 9 -93 18 -109 21 -16 2
-90 20 -165 38 -404 99 -649 218 -951 462 -109 88 -296 267 -390 373 -165 187
-371 476 -499 700 -63 110 -220 438 -266 554 -144 369 -341 1092 -390 1431 -3
23 -7 52 -10 65 -3 14 -10 63 -15 110 -6 47 -13 98 -15 114 -2 17 -2 32 0 35
2 3 668 6 1480 6 l1476 0 -39 -35z m13966 26 c83 -20 361 -131 531 -213 614
-296 1166 -773 1563 -1353 93 -136 318 -508 318 -527 0 -2 14 -25 32 -51 111
-162 250 -241 433 -248 103 -4 155 6 240 44 60 27 148 92 192 141 38 44 100
173 116 242 25 111 11 246 -36 349 -12 25 -40 78 -64 118 -24 41 -43 75 -43
77 0 8 -168 287 -223 370 -103 156 -325 456 -362 490 -7 6 -34 37 -60 70 -27
33 -147 158 -267 278 -120 120 -218 219 -218 220 0 6 3419 1 3425 -4 7 -7 7
-210 0 -294 -2 -27 -6 -86 -10 -130 -3 -44 -8 -87 -10 -95 -2 -8 -6 -42 -10
-74 -7 -66 -34 -218 -60 -336 -9 -41 -18 -84 -20 -96 -5 -24 -44 -174 -74
-286 -25 -91 -97 -310 -117 -355 -8 -17 -14 -35 -14 -41 0 -15 -112 -267 -173
-388 -356 -710 -910 -1306 -1462 -1574 -141 -68 -358 -144 -475 -166 -14 -3
-43 -10 -65 -16 -22 -5 -51 -12 -65 -15 -14 -2 -45 -9 -70 -14 -25 -6 -56 -13
-70 -15 -14 -3 -61 -11 -105 -19 -44 -8 -98 -17 -120 -20 -23 -3 -50 -7 -61
-9 -12 -2 -43 -7 -70 -10 -27 -4 -65 -9 -84 -11 -19 -3 -62 -7 -95 -11 -33 -3
-71 -7 -85 -10 -152 -24 -839 -24 -1002 1 -13 2 -52 6 -88 10 -69 7 -116 12
-165 20 -16 3 -48 7 -70 11 -33 5 -232 45 -297 60 -10 2 -26 6 -35 8 -297 68
-669 215 -948 374 -72 41 -305 188 -330 209 -6 4 -39 28 -75 52 -172 118 -479
362 -665 529 -94 85 -340 328 -446 443 -476 510 -833 1041 -1058 1572 -42 99
-106 234 -249 526 -45 91 -79 167 -77 170 5 9 3206 6 3243 -3z"/>
</g>
</svg>
